HIERARCHY
ROOT Pelvis
{
	OFFSET 0.000000 0.000000 0.000000
	CHANNELS 6 Xposition Yposition Zposition Xrotation Yrotation Zrotation
	JOINT LeftUpLeg_virtual
	{
		OFFSET 0.000000 0.000000 0.000000
		CHANNELS 3 Xrotation Yrotation Zrotation
		JOINT LeftUpLeg
		{
			OFFSET 18.735201 -5.666702 -4.541200
			CHANNELS 3 Xrotation Yrotation Zrotation
			JOINT LeftLeg
			{
				OFFSET -0.021200 -31.938179 0.493100
				CHANNELS 3 Xrotation Yrotation Zrotation
				JOINT LeftFoot
				{
					OFFSET 0.021200 -31.938179 -4.336299
					CHANNELS 3 Xrotation Yrotation Zrotation
					JOINT LeftToeBase
					{
						OFFSET 0.943001 -26.722000 15.023500
						CHANNELS 3 Xrotation Yrotation Zrotation
						End Site
						{
							OFFSET 0 0 0
						}
					}
				}
			}
		}
	}
	JOINT RightUpLeg_virtual
	{
		OFFSET 0.000000 0.000000 0.000000
		CHANNELS 3 Xrotation Yrotation Zrotation
		JOINT RightUpLeg
		{
			OFFSET -18.735201 -5.666702 -4.541200
			CHANNELS 3 Xrotation Yrotation Zrotation
			JOINT RightLeg
			{
				OFFSET 0.018946 -31.938133 0.493100
				CHANNELS 3 Xrotation Yrotation Zrotation
				JOINT RightFoot
				{
					OFFSET -0.018946 -31.938126 -4.336299
					CHANNELS 3 Xrotation Yrotation Zrotation
					JOINT RightToeBase
					{
						OFFSET -0.943001 -26.722004 15.023500
						CHANNELS 3 Xrotation Yrotation Zrotation
						End Site
						{
							OFFSET 0 0 0
						}
					}
				}
			}
		}
	}
	JOINT Hips_virtual
	{
		OFFSET 0.000000 0.000000 0.000000
		CHANNELS 3 Xrotation Yrotation Zrotation
		JOINT Hips
		{
			OFFSET -0.000000 -0.000000 -0.000000
			CHANNELS 3 Xrotation Yrotation Zrotation
			JOINT Spine
			{
				OFFSET 0.000000 10.199997 -0.299500
				CHANNELS 3 Xrotation Yrotation Zrotation
				JOINT Spine1
				{
					OFFSET 0.000000 11.900002 -1.516600
					CHANNELS 3 Xrotation Yrotation Zrotation
					JOINT Spine2
					{
						OFFSET 0.000000 13.600006 -2.842500
						CHANNELS 3 Xrotation Yrotation Zrotation
						JOINT Neck_virtual
						{
							OFFSET 0.000000 0.000000 0.000000
							CHANNELS 3 Xrotation Yrotation Zrotation
							JOINT Neck
							{
								OFFSET 0.000000 9.624100 -2.890100
								CHANNELS 3 Xrotation Yrotation Zrotation
								JOINT Head
								{
									OFFSET 0.000000 14.068802 -1.351900
									CHANNELS 3 Xrotation Yrotation Zrotation
									End Site
									{
										OFFSET 0 0 0
									}
								}
							}
						}
						JOINT LeftShoulder_virtual
						{
							OFFSET 0.000000 0.000000 0.000000
							CHANNELS 3 Xrotation Yrotation Zrotation
							JOINT LeftShoulder
							{
								OFFSET 15.263000 10.923401 -0.547700
								CHANNELS 3 Xrotation Yrotation Zrotation
								JOINT LeftArm
								{
									OFFSET 25.438599 -2.830597 -13.032500
									CHANNELS 3 Xrotation Yrotation Zrotation
									JOINT LeftForeArm
									{
										OFFSET 29.960503 0.000000 0.000000
										CHANNELS 3 Xrotation Yrotation Zrotation
										JOINT LeftHand
										{
											OFFSET 27.849251 0.000000 0.000000
											CHANNELS 3 Xrotation Yrotation Zrotation
											End Site
											{
												OFFSET 0 0 0
											}
										}
									}
								}
							}
						}
						JOINT RightShoulder_virtual
						{
							OFFSET 0.000000 0.000000 0.000000
							CHANNELS 3 Xrotation Yrotation Zrotation
							JOINT RightShoulder
							{
								OFFSET -15.263000 10.923401 -0.547700
								CHANNELS 3 Xrotation Yrotation Zrotation
								JOINT RightArm
								{
									OFFSET -25.438599 -2.830597 -13.032500
									CHANNELS 3 Xrotation Yrotation Zrotation
									JOINT RightForeArm
									{
										OFFSET -29.960503 0.000000 0.000000
										CHANNELS 3 Xrotation Yrotation Zrotation
										JOINT RightHand
										{
											OFFSET -27.849251 0.000000 0.000000
											CHANNELS 3 Xrotation Yrotation Zrotation
											End Site
											{
												OFFSET 0 0 0
											}
										}
									}
								}
							}
						}
					}
				}
			}
		}
	}
}
MOTION
Frames: 11
Frame Time: 0.03333333
-0.853557 91.617554 1.592827 0.000000 0.000000 0.000000 -1.558855 -29.803807 1.474879 -20.385446 21.275392 12.228346 23.820672 15.282318 -1.541972 -4.616592 1.421867 -8.574775 0.000000 0.000000 0.000000 -1.083717 -29.153180 1.515587 -18.662828 -1.801918 -12.473860 21.833258 8.722175 1.763551 -7.377922 -0.495749 15.966535 0.000000 0.000000 0.000000 -0.922082 -29.588291 1.846369 -0.518934 0.509954 -1.235074 7.870909 -0.530951 -2.720323 0.946103 -0.800764 3.296736 0.000000 0.000000 0.000000 0.497805 0.619795 2.800719 -1.227558 3.315330 -0.712192 0.000000 0.000000 0.000000 -0.320145 0.472914 2.865179 -0.046400 -15.428890 3.431455 -54.613035 -0.334155 -50.329147 8.253359 -57.799888 11.897597 0.000000 0.000000 0.000000 0.292422 1.098450 3.407432 4.088868 1.576467 4.129511 5.615691 -8.194884 60.507533 9.013745 29.692816 1.639301 0.000000 0.000000 0.000000 
-0.895118 91.827713 1.953548 0.000000 0.000000 0.000000 -1.186766 -30.002938 1.685313 -19.747764 20.967738 12.089635 23.261978 14.760795 -1.360242 -4.760384 1.371314 -8.597924 0.000000 0.000000 0.000000 -0.956465 -29.190005 1.469871 -18.746284 -1.218241 -12.506391 22.271099 9.106357 1.308169 -6.267402 -0.177261 15.828367 0.000000 0.000000 0.000000 -0.929912 -29.485964 1.729762 -0.430216 0.562054 -1.062438 7.964279 -0.681094 -2.675873 1.030756 -0.838143 2.966219 0.000000 0.000000 0.000000 0.580007 0.517134 2.526117 -0.979441 3.488556 -0.850272 0.000000 0.000000 0.000000 -0.203220 0.421491 2.708808 -0.077514 -15.236637 2.635697 -53.783966 -0.562846 -49.585483 7.559358 -57.825146 10.567969 0.000000 0.000000 0.000000 0.447947 1.018983 3.200547 4.016721 1.894069 3.674704 5.806056 -9.789472 61.864070 9.256651 29.125409 1.367154 0.000000 0.000000 0.000000 
-0.736385 91.996834 2.197563 0.000000 0.000000 0.000000 -0.666540 -30.179778 2.015165 -19.700028 20.118956 12.459674 23.299216 14.063990 -1.606087 -4.654243 1.260031 -8.222681 0.000000 0.000000 0.000000 -0.620634 -29.299507 1.598012 -19.243353 -0.729221 -12.638445 23.323728 9.649100 0.665277 -6.596769 -0.429455 15.028370 0.000000 0.000000 0.000000 -0.748972 -29.736376 1.771850 -0.611332 0.539337 -0.867933 8.540083 -0.631015 -1.933104 1.054760 -0.969083 2.095137 0.000000 0.000000 0.000000 0.320729 0.334944 1.757802 -0.901452 3.550176 -1.093908 0.000000 0.000000 0.000000 -0.037992 0.279611 2.012070 -0.011768 -14.868477 1.647047 -52.961208 -0.709176 -47.257102 5.644829 -58.535643 7.725688 0.000000 0.000000 0.000000 0.614985 0.917979 2.452237 4.068450 2.463430 1.816206 5.232684 -11.680015 65.072360 9.175913 28.337893 1.057003 0.000000 0.000000 0.000000 
-0.366931 91.958420 2.232159 0.000000 0.000000 0.000000 -0.019661 -30.652598 2.425983 -20.421058 18.713566 13.086029 24.327085 13.141465 -2.235986 -4.452208 1.042604 -7.616796 0.000000 0.000000 0.000000 -0.071462 -29.686034 1.825943 -20.436638 -0.424269 -12.929551 25.163990 10.395631 0.066463 -8.697022 -0.984071 13.920449 0.000000 0.000000 0.000000 -0.321175 -30.693094 1.954273 -0.783957 0.497776 -0.703138 9.682671 -0.364331 -0.660870 1.065878 -1.122430 0.853572 0.000000 0.000000 0.000000 -0.049031 0.168423 0.614892 -0.961572 3.457232 -1.400279 0.000000 0.000000 0.000000 0.146821 0.126971 0.902730 0.129194 -14.244800 0.830244 -52.534561 -0.746675 -43.360220 2.416528 -60.358744 3.430409 0.000000 0.000000 0.000000 0.710114 0.819269 1.294178 4.239165 3.074193 -1.121156 5.065545 -13.472216 69.671953 8.867342 28.065824 0.716034 0.000000 0.000000 0.000000 
0.287907 91.603226 2.088932 0.000000 0.000000 0.000000 0.734374 -32.019756 2.851748 -21.879642 16.667953 13.718659 26.614771 11.831655 -3.080728 -4.730470 0.562461 -7.122568 0.000000 0.000000 0.000000 0.469927 -30.961439 2.053817 -22.624940 -0.002985 -13.460872 27.720762 11.695534 -0.308335 -10.609000 -0.957357 13.462136 0.000000 0.000000 0.000000 0.280379 -32.581143 2.217695 -0.894906 0.507606 -0.613411 11.431047 0.053825 0.825016 1.096131 -1.209932 -0.525186 0.000000 0.000000 0.000000 -0.322303 0.108260 -0.692470 -1.067141 3.199443 -1.687977 0.000000 0.000000 0.000000 0.263654 0.054560 -0.397184 0.301613 -13.348665 0.409580 -52.517762 -0.364500 -38.219662 -2.586894 -63.123474 -2.727565 0.000000 0.000000 0.000000 0.745309 0.771083 -0.065852 4.473958 3.657216 -4.585954 6.500138 -14.709084 74.817858 8.491283 28.861647 0.250800 0.000000 0.000000 0.000000 
1.220854 90.880539 1.750244 0.000000 0.000000 0.000000 1.608752 -34.669828 3.245797 -23.780335 14.007970 14.069399 29.951950 10.056916 -3.904331 -6.005848 -0.319118 -7.216355 0.000000 0.000000 0.000000 0.890399 -33.526311 2.192285 -26.035103 0.941557 -14.000201 30.453071 13.800466 -0.433922 -10.833005 0.147947 14.175771 0.000000 0.000000 0.000000 1.028845 -35.726001 2.513301 -1.016947 0.690570 -0.626713 13.698026 0.514409 2.146439 1.138805 -1.190120 -1.715021 0.000000 0.000000 0.000000 -0.348887 0.183772 -1.870013 -1.104050 2.759699 -1.884130 0.000000 0.000000 0.000000 0.312975 0.150079 -1.621546 0.477632 -12.329131 0.453392 -53.107453 0.275583 -32.881258 -10.001655 -66.204190 -11.284157 0.000000 0.000000 0.000000 0.728534 0.797834 -1.317056 4.687296 4.127741 -7.995593 9.878134 -14.740119 79.502063 8.203125 30.441330 -0.331468 0.000000 0.000000 0.000000 
2.347872 89.860703 1.352142 0.000000 0.000000 0.000000 2.611431 -38.781227 3.610976 -25.848477 10.897061 14.034338 34.043186 7.955955 -4.494909 -8.524852 -1.500069 -8.006838 0.000000 0.000000 0.000000 1.197514 -37.559586 2.247034 -30.470843 2.728654 -14.203272 32.902199 16.513377 -0.436429 -8.908938 2.347109 15.697885 0.000000 0.000000 0.000000 1.890403 -40.150523 2.812177 -1.141004 0.810112 -0.720430 16.337679 0.908531 2.981903 1.176322 -1.058089 -2.418820 0.000000 0.000000 0.000000 -0.147709 0.380368 -2.605786 -1.024691 2.127154 -1.940449 0.000000 0.000000 0.000000 0.277015 0.358411 -2.455524 0.608889 -11.553513 0.941761 -54.537029 1.102015 -28.518111 -19.732521 -68.656747 -22.082768 0.000000 0.000000 0.000000 0.660991 0.900255 -2.124675 4.861019 4.665523 -10.886408 14.257665 -13.333467 82.695785 8.190007 31.941212 -1.128069 0.000000 0.000000 0.000000 
3.682537 88.717987 0.919254 0.000000 0.000000 0.000000 3.656009 -44.382446 3.906697 -27.936399 7.562731 13.785857 38.816932 5.995929 -4.705740 -12.018538 -2.555854 -9.002716 0.000000 0.000000 0.000000 1.481525 -43.266871 2.192991 -35.210155 5.072687 -13.632696 34.002779 19.337847 -0.266646 -5.227598 5.231371 17.310471 0.000000 0.000000 0.000000 2.847583 -45.659251 3.078255 -1.261478 0.751566 -0.737246 19.146528 1.165301 3.153775 1.129461 -0.868468 -2.428448 0.000000 0.000000 0.000000 0.140549 0.617814 -2.654572 -0.814087 1.340620 -1.806139 0.000000 0.000000 0.000000 0.139194 0.597982 -2.638173 0.690084 -11.308229 1.888042 -56.937703 1.830138 -26.020360 -30.657714 -69.989754 -33.912087 0.000000 0.000000 0.000000 0.551340 1.041145 -2.226497 4.970032 5.617606 -12.927254 17.916920 -10.837264 83.461080 8.510859 32.530644 -2.172063 0.000000 0.000000 0.000000 
5.232568 87.623581 0.488533 0.000000 0.000000 0.000000 4.788147 -51.252558 4.194955 -29.905051 4.415045 13.483016 43.942647 4.772426 -4.518791 -15.931867 -3.072104 -9.522886 0.000000 0.000000 0.000000 2.105125 -50.208608 2.144454 -39.673557 7.486542 -12.036585 33.373223 21.576323 0.083870 -1.273675 7.959792 18.306263 0.000000 0.000000 0.000000 4.037223 -52.048883 3.388165 -1.428566 0.652056 -0.593158 21.918234 1.229619 2.666326 0.993940 -0.664685 -1.671864 0.000000 0.000000 0.000000 0.380484 0.835641 -1.946220 -0.515496 0.430296 -1.503352 0.000000 0.000000 0.000000 -0.045925 0.789914 -2.072471 0.760635 -11.758970 3.239843 -60.455063 2.329289 -25.499196 -40.438651 -70.249889 -44.365313 0.000000 0.000000 0.000000 0.359775 1.188789 -1.533388 4.975188 7.060941 -14.119036 19.811104 -7.602377 81.518663 9.138674 31.849848 -3.390955 0.000000 0.000000 0.000000 
6.883204 86.671951 0.046173 0.000000 0.000000 0.000000 6.202301 -58.789330 4.626680 -31.540482 1.737610 13.225125 48.940392 4.588194 -4.019032 -19.771750 -3.046988 -9.325309 0.000000 0.000000 0.000000 3.279968 -57.899227 2.283647 -43.395200 9.305834 -9.721032 30.984808 22.735683 0.708656 2.429150 9.933141 18.514385 0.000000 0.000000 0.000000 5.637762 -58.870022 3.928238 -1.531685 0.540082 -0.516235 24.495101 1.071287 1.731185 0.749538 -0.520060 -0.300334 0.000000 0.000000 0.000000 0.430900 0.982113 -0.609550 -0.250888 -0.558924 -1.057666 0.000000 0.000000 0.000000 -0.287017 0.859448 -0.851871 0.908061 -12.876979 4.949520 -64.856437 2.863349 -26.261362 -47.775121 -70.083922 -52.145175 0.000000 0.000000 0.000000 0.099847 1.286618 -0.208627 4.906936 8.866345 -14.663031 19.553419 -4.160275 77.316628 9.960424 30.161221 -4.681891 0.000000 0.000000 0.000000 
8.515773 85.927704 -0.333855 0.000000 0.000000 0.000000 8.119651 -66.228533 5.441303 -32.659034 -0.093949 13.137108 53.250293 5.368255 -3.308467 -23.244406 -2.667696 -8.685934 0.000000 0.000000 0.000000 5.222243 -65.616166 2.951335 -46.319959 10.159220 -7.165787 27.969396 22.574067 1.269690 6.093280 10.869871 17.944883 0.000000 0.000000 0.000000 7.922802 -65.587247 4.999488 -1.563990 0.450283 -0.559200 26.725941 0.745190 0.642459 0.412832 -0.497993 1.428615 0.000000 0.000000 0.000000 0.210439 1.041340 1.079686 -0.110892 -1.593170 -0.524044 0.000000 0.000000 0.000000 -0.565147 0.829241 0.728371 1.226815 -14.509410 6.939472 -69.263548 3.328390 -27.624439 -52.326694 -69.977952 -56.874118 0.000000 0.000000 0.000000 -0.233212 1.300517 1.445702 4.826786 10.729931 -14.850513 17.273861 -0.592413 71.716351 10.825681 27.838635 -5.922643 0.000000 0.000000 0.000000 
